<svg xmlns="http://www.w3.org/2000/svg" xmlns:xlink="http://www.w3.org/1999/xlink" xmlns:inkscape="http://www.inkscape.org/namespaces/inkscape" version="1.1" viewBox="55.5 642.1 1629.7 285.6">
<defs>
<clipPath id="clip_1">
<path transform="matrix(.24,0,0,.24,0,0)" d="M0 0H7253.125V6909.375H0Z" clip-rule="evenodd"/>
</clipPath>
<clipPath id="clip_2">
<path transform="matrix(.24,0,0,.24,0,0)" d="M0 0H7253.125V6909.375H0Z" clip-rule="evenodd"/>
</clipPath>
<clipPath id="clip_3">
<path transform="matrix(.24,0,0,.24,0,0)" d="M0 0H7254V6909H0Z" clip-rule="evenodd"/>
</clipPath>
<clipPath id="clip_4">
<path transform="matrix(.24,0,0,.24,0,0)" d="M0 0H7252.0847V6908.384H0Z" clip-rule="evenodd"/>
</clipPath>
<clipPath id="clip_5">
<path transform="matrix(.24,0,0,.24,67.439998,650.64)" d="M0 0H6694V1485H0Z" clip-rule="evenodd"/>
</clipPath>
<g id="font_6_66">
<path transform="matrix(.001,0,0,-.001,0,0)" d="M394 10C587 10 734-154 734-351 734-551 592-720 387-720 181-720 38-564 38-357 38-164 183 10 394 10ZM416-33C245-33 128-212 128-418 128-565 221-677 356-677 527-677 644-503 644-291 644-156 550-33 416-33Z"/>
</g>
<g id="font_6_253">
<path transform="matrix(.001,0,0,-.001,0,0)" d="M234 9C358 9 436-51 436-126 436-326 131-228 131-372 131-422 176-459 234-459 357-459 332-337 389-337 409-337 425-352 425-372 425-426 354-490 230-490 120-490 42-430 42-353 42-156 348-255 348-108 348-51 298-20 234-20 100-20 132-142 70-142 47-142 31-129 31-105 31-58 101 9 234 9Z"/>
</g>
<g id="font_7_4">
<path transform="matrix(.001,0,0,-.001,0,0)" d="M217 10C297 10 345-50 345-112 345-130 321-131 315-116 311-82 285-56 241-56 204-56 178-85 178-140V-440H316C324-440 331-446 331-455V-465C331-473 324-480 316-480H178L177-575C177-588 173-595 161-595H151C142-595 135-588 134-575 129-518 106-480 58-480H22C12-480 7-474 7-465V-455C7-446 13-440 22-440H88V-141C88-39 140 10 217 10Z"/>
</g>
<g id="font_6_187">
<path transform="matrix(.001,0,0,-.001,0,0)" d="M440-141C418-93 371-54 297-54 216-54 155-106 132-192L409-283C439-293 456-310 456-342 456-411 390-490 270-490 137-490 34-385 34-244 34-88 137 10 266 10 391 10 457-73 469-133 472-152 449-155 440-141ZM255-458C324-458 372-385 372-340 372-323 365-312 348-305L125-225C122-241 121-258 121-276 121-378 174-458 255-458Z"/>
</g>
<g id="font_6_249">
<path transform="matrix(.001,0,0,-.001,0,0)" d="M286-490C224-490 178-456 156-392V-472C156-487 149-495 130-486L54-452C45-447 39-441 39-434V-432C39-413 79-412 79-374V-70C79-35 42-34 42-16V-12C42-4 49 0 62 0H186C199 0 206-4 206-12V-16C206-34 164-35 164-70V-298C164-373 194-436 249-436 311-436 286-366 338-366 366-366 378-387 378-413 378-455 346-490 286-490Z"/>
</g>
<g id="font_6_203">
<path transform="matrix(.001,0,0,-.001,0,0)" d="M120-575C159-575 185-600 185-637 185-674 159-700 120-700 79-700 53-674 53-637 53-600 79-575 120-575ZM62 0H185C197 0 206-5 206-13V-17C206-36 166-36 166-71V-472C166-486 156-496 135-486L58-448C49-443 43-440 43-433V-431C43-416 79-408 79-369V-71C79-36 43-36 43-17V-13C43-5 50 0 62 0Z"/>
</g>
<g id="font_6_165">
<path transform="matrix(.001,0,0,-.001,0,0)" d="M448-80 428-279C415-411 341-490 218-490 109-490 41-434 41-381 41-358 56-344 80-344 130-344 114-458 218-458 298-458 330-394 341-276L343-249C316-274 273-289 220-289 116-289 36-237 37-141 37-45 113 10 223 10 296 10 344-18 367-60 371-5 395 6 440 6 477 6 504 0 504-15 504-40 454-18 448-80ZM245-22C173-22 125-80 125-153 125-215 172-257 240-257 299-257 340-224 350-177L354-132C356-71 312-22 245-22Z"/>
</g>
<g id="font_8_32">
<path transform="matrix(.001,0,0,-.001,0,0)" d="M65 0H285C299 0 309-7 309-19V-23C309-51 264-63 264-109V-298H376C422-298 436-223 465-223H474C486-223 493-232 493-246V-426C493-440 486-449 474-449H465C436-449 422-368 376-368H264V-592C264-628 286-640 310-640H406C477-640 506-523 562-523H567C584-523 595-534 592-552L568-678C564-700 556-710 534-710H64C50-710 41-703 41-691V-687C41-659 81-647 81-601V-109C81-63 41-51 41-23V-19C41-7 51 0 65 0Z"/>
</g>
<g id="font_8_234">
<path transform="matrix(.001,0,0,-.001,0,0)" d="M298 10C444 10 565-93 565-239 565-386 441-490 291-490 148-490 21-389 21-241 21-96 145 10 298 10ZM319-39C238-39 198-235 198-316 198-397 215-441 263-441 342-441 383-240 383-162 383-87 366-39 319-39Z"/>
</g>
<g id="font_8_227">
<path transform="matrix(.001,0,0,-.001,0,0)" d="M568-109 555-282C543-441 451-490 364-490 298-490 248-463 221-415V-462C221-482 208-499 183-486L43-417C29-410 19-404 19-392V-389C19-360 72-354 72-306V-109C72-63 28-51 28-22V-18C28-6 37 1 52 1H268C283 1 292-6 292-18V-22C292-51 248-63 248-109V-327C248-385 269-424 313-424 358-424 377-387 382-288L392-109C395-63 356-51 356-22V-18C356-6 365 1 380 1H580C594 1 604-6 604-18V-22C604-51 571-63 568-109Z"/>
</g>
<g id="font_8_183">
<path transform="matrix(.001,0,0,-.001,0,0)" d="M532-109V-729C532-756 517-762 488-753L332-706C318-702 309-691 309-680V-677C309-648 362-642 362-595V-462C335-480 301-490 259-490 133-490 22-389 22-240 22-76 137 10 258 10 307 10 350-6 380-34V-25C380-10 390 0 406 0H549C563 0 572-7 572-19V-23C572-51 532-63 532-109ZM298-39C223-42 190-234 193-318 196-398 223-441 272-441 318-441 362-380 362-316V-123C362-69 332-38 298-39Z"/>
</g>
</defs>
<g>
<g clip-path="url(#clip_1)">

</g>
<g clip-path="url(#clip_2)">
<g>
<g clip-path="url(#clip_3)">
<g clip-path="url(#clip_4)">

</g>
<g>
<g clip-path="url(#clip_5)">
<use data-text="O" xlink:href="#font_6_66" transform="matrix(261.47038,0,0,-261.47038,67.528179,912.22537)"/>
<use data-text="s" xlink:href="#font_6_253" transform="matrix(261.47038,0,0,-261.47038,269.38343,912.22537)"/>
<use data-text="t" xlink:href="#font_7_4" transform="matrix(261.47038,0,0,-261.47038,390.44429,912.22537)"/>
<use data-text="e" xlink:href="#font_6_187" transform="matrix(261.47038,0,0,-261.47038,482.4819,912.22537)"/>
<use data-text="r" xlink:href="#font_6_249" transform="matrix(261.47038,0,0,-261.47038,611.9098,912.22537)"/>
<use data-text="i" xlink:href="#font_6_203" transform="matrix(261.47038,0,0,-261.47038,711.5301,912.22537)"/>
<use data-text="a" xlink:href="#font_6_165" transform="matrix(261.47038,0,0,-261.47038,775.06747,912.22537)"/>
<use data-text="F" xlink:href="#font_8_32" transform="matrix(261.47038,0,0,-261.47038,907.3741,912.22537)"/>
<use data-text="o" xlink:href="#font_8_234" transform="matrix(261.47038,0,0,-261.47038,1050.9215,912.22537)"/>
<use data-text="n" xlink:href="#font_8_227" transform="matrix(261.47038,0,0,-261.47038,1204.4047,912.22537)"/>
<use data-text="d" xlink:href="#font_8_183" transform="matrix(261.47038,0,0,-261.47038,1365.4705,912.22537)"/>
<use data-text="o" xlink:href="#font_8_234" transform="matrix(261.47038,0,0,-261.47038,1519.738,912.22537)"/>
</g>
</g>
</g>
</g>
</g>
</g>
</svg>
